<mxfile host="app.diagrams.net" modified="2024-04-03T06:55:28.816Z" agent="Mozilla/5.0 (Macintosh; Intel Mac OS X 10_15_7) AppleWebKit/537.36 (KHTML, like Gecko) Chrome/119.0.0.0 Safari/537.36" etag="MkfQR_lsaKkfMQoQJuQe" version="24.2.0" type="github">
  <diagram name="第 1 页" id="DwvReIaHvbXtzdrkDo4T">
    <mxGraphModel dx="1861" dy="733" grid="1" gridSize="10" guides="1" tooltips="1" connect="1" arrows="1" fold="1" page="1" pageScale="1" pageWidth="827" pageHeight="1169" math="0" shadow="0">
      <root>
        <mxCell id="0" />
        <mxCell id="1" parent="0" />
        <mxCell id="mf6Sa_QG6RfHMYuE2r7f-55" value="" style="rounded=0;whiteSpace=wrap;html=1;dashed=1;strokeWidth=2;" vertex="1" parent="1">
          <mxGeometry x="-60" y="870" width="480" height="250" as="geometry" />
        </mxCell>
        <mxCell id="mf6Sa_QG6RfHMYuE2r7f-77" value="" style="rounded=1;whiteSpace=wrap;html=1;" vertex="1" parent="1">
          <mxGeometry x="27.5" y="1048" width="305" height="60" as="geometry" />
        </mxCell>
        <mxCell id="mf6Sa_QG6RfHMYuE2r7f-4" value="" style="rounded=0;whiteSpace=wrap;html=1;dashed=1;strokeWidth=2;strokeColor=default;" vertex="1" parent="1">
          <mxGeometry x="-60" y="270" width="480" height="240" as="geometry" />
        </mxCell>
        <mxCell id="mf6Sa_QG6RfHMYuE2r7f-5" value="多源异质数据的收集与处理" style="text;html=1;align=center;verticalAlign=middle;whiteSpace=wrap;rounded=0;fontStyle=1;fontSize=13;" vertex="1" parent="1">
          <mxGeometry x="90" y="276" width="175" height="30" as="geometry" />
        </mxCell>
        <mxCell id="mf6Sa_QG6RfHMYuE2r7f-6" value="" style="rounded=0;whiteSpace=wrap;html=1;dashed=1;strokeWidth=2;" vertex="1" parent="1">
          <mxGeometry x="-60" y="510" width="480" height="360" as="geometry" />
        </mxCell>
        <mxCell id="mf6Sa_QG6RfHMYuE2r7f-7" value="基于异质网络的抗癌协同药物预测模型" style="text;html=1;align=center;verticalAlign=middle;whiteSpace=wrap;rounded=0;fontStyle=1;fontSize=13;" vertex="1" parent="1">
          <mxGeometry x="59" y="510" width="231" height="30" as="geometry" />
        </mxCell>
        <mxCell id="mf6Sa_QG6RfHMYuE2r7f-43" style="edgeStyle=orthogonalEdgeStyle;rounded=0;orthogonalLoop=1;jettySize=auto;html=1;exitX=0.5;exitY=1;exitDx=0;exitDy=0;entryX=0.5;entryY=0;entryDx=0;entryDy=0;" edge="1" parent="1" source="mf6Sa_QG6RfHMYuE2r7f-9" target="mf6Sa_QG6RfHMYuE2r7f-21">
          <mxGeometry relative="1" as="geometry" />
        </mxCell>
        <mxCell id="mf6Sa_QG6RfHMYuE2r7f-9" value="" style="rounded=1;whiteSpace=wrap;html=1;" vertex="1" parent="1">
          <mxGeometry x="-15" y="620" width="220" height="110" as="geometry" />
        </mxCell>
        <mxCell id="mf6Sa_QG6RfHMYuE2r7f-10" value="&lt;div style=&quot;text-align: center;&quot;&gt;基于双视角对比学习的&lt;/div&gt;&lt;div style=&quot;text-align: center;&quot;&gt;&lt;span style=&quot;&quot;&gt;药物表示学习框架&lt;/span&gt;&lt;br&gt;&lt;/div&gt;" style="text;whiteSpace=wrap;html=1;" vertex="1" parent="1">
          <mxGeometry x="35" y="620" width="130" height="40" as="geometry" />
        </mxCell>
        <mxCell id="mf6Sa_QG6RfHMYuE2r7f-12" value="基于生物医学实体关系的宏观异质图" style="rounded=1;whiteSpace=wrap;html=1;" vertex="1" parent="1">
          <mxGeometry x="100" y="570" width="100" height="30" as="geometry" />
        </mxCell>
        <mxCell id="mf6Sa_QG6RfHMYuE2r7f-41" style="edgeStyle=orthogonalEdgeStyle;rounded=0;orthogonalLoop=1;jettySize=auto;html=1;exitX=0.5;exitY=1;exitDx=0;exitDy=0;entryX=0;entryY=0;entryDx=0;entryDy=0;" edge="1" parent="1" source="mf6Sa_QG6RfHMYuE2r7f-14" target="mf6Sa_QG6RfHMYuE2r7f-10">
          <mxGeometry relative="1" as="geometry" />
        </mxCell>
        <mxCell id="mf6Sa_QG6RfHMYuE2r7f-14" value="基于分子结构与性质的微观异质图" style="rounded=1;whiteSpace=wrap;html=1;" vertex="1" parent="1">
          <mxGeometry x="-15" y="570" width="100" height="30" as="geometry" />
        </mxCell>
        <mxCell id="mf6Sa_QG6RfHMYuE2r7f-16" value="异质图注意力机制" style="rounded=1;whiteSpace=wrap;html=1;" vertex="1" parent="1">
          <mxGeometry x="35" y="660" width="110" height="30" as="geometry" />
        </mxCell>
        <mxCell id="mf6Sa_QG6RfHMYuE2r7f-17" value="自监督对比学习" style="rounded=1;whiteSpace=wrap;html=1;" vertex="1" parent="1">
          <mxGeometry x="-5" y="695" width="100" height="30" as="geometry" />
        </mxCell>
        <mxCell id="mf6Sa_QG6RfHMYuE2r7f-18" value="难负例挖掘" style="rounded=1;whiteSpace=wrap;html=1;" vertex="1" parent="1">
          <mxGeometry x="105" y="695" width="90" height="30" as="geometry" />
        </mxCell>
        <mxCell id="mf6Sa_QG6RfHMYuE2r7f-21" value="药物表示" style="rounded=1;whiteSpace=wrap;html=1;" vertex="1" parent="1">
          <mxGeometry x="60" y="743" width="70" height="30" as="geometry" />
        </mxCell>
        <mxCell id="mf6Sa_QG6RfHMYuE2r7f-38" style="edgeStyle=orthogonalEdgeStyle;rounded=0;orthogonalLoop=1;jettySize=auto;html=1;exitX=0.5;exitY=1;exitDx=0;exitDy=0;entryX=0.163;entryY=0.053;entryDx=0;entryDy=0;entryPerimeter=0;" edge="1" parent="1" source="mf6Sa_QG6RfHMYuE2r7f-23" target="mf6Sa_QG6RfHMYuE2r7f-27">
          <mxGeometry relative="1" as="geometry" />
        </mxCell>
        <mxCell id="mf6Sa_QG6RfHMYuE2r7f-23" value="分子及原子的&lt;div&gt;性质与结构数据&lt;/div&gt;" style="rounded=1;whiteSpace=wrap;html=1;" vertex="1" parent="1">
          <mxGeometry x="-10" y="330" width="90" height="60" as="geometry" />
        </mxCell>
        <mxCell id="mf6Sa_QG6RfHMYuE2r7f-31" style="edgeStyle=orthogonalEdgeStyle;rounded=0;orthogonalLoop=1;jettySize=auto;html=1;exitX=0.5;exitY=1;exitDx=0;exitDy=0;entryX=0.75;entryY=0;entryDx=0;entryDy=0;" edge="1" parent="1" source="mf6Sa_QG6RfHMYuE2r7f-24" target="mf6Sa_QG6RfHMYuE2r7f-27">
          <mxGeometry relative="1" as="geometry" />
        </mxCell>
        <mxCell id="mf6Sa_QG6RfHMYuE2r7f-40" style="edgeStyle=orthogonalEdgeStyle;rounded=0;orthogonalLoop=1;jettySize=auto;html=1;exitX=0.5;exitY=1;exitDx=0;exitDy=0;entryX=0.5;entryY=0;entryDx=0;entryDy=0;" edge="1" parent="1" source="mf6Sa_QG6RfHMYuE2r7f-24" target="mf6Sa_QG6RfHMYuE2r7f-12">
          <mxGeometry relative="1" as="geometry">
            <mxPoint x="190" y="570" as="targetPoint" />
            <Array as="points">
              <mxPoint x="135" y="400" />
              <mxPoint x="190" y="400" />
              <mxPoint x="190" y="550" />
              <mxPoint x="150" y="550" />
            </Array>
          </mxGeometry>
        </mxCell>
        <mxCell id="mf6Sa_QG6RfHMYuE2r7f-24" value="药物相关实体&lt;div&gt;互作用关系数据&lt;/div&gt;" style="rounded=1;whiteSpace=wrap;html=1;" vertex="1" parent="1">
          <mxGeometry x="90" y="330" width="90" height="60" as="geometry" />
        </mxCell>
        <mxCell id="mf6Sa_QG6RfHMYuE2r7f-49" style="edgeStyle=orthogonalEdgeStyle;rounded=0;orthogonalLoop=1;jettySize=auto;html=1;exitX=0.5;exitY=1;exitDx=0;exitDy=0;entryX=0.5;entryY=0;entryDx=0;entryDy=0;" edge="1" parent="1" source="mf6Sa_QG6RfHMYuE2r7f-25" target="mf6Sa_QG6RfHMYuE2r7f-48">
          <mxGeometry relative="1" as="geometry">
            <Array as="points">
              <mxPoint x="235" y="550" />
              <mxPoint x="269" y="550" />
            </Array>
          </mxGeometry>
        </mxCell>
        <mxCell id="mf6Sa_QG6RfHMYuE2r7f-25" value="细胞系基因&lt;div&gt;表达水平数据&lt;/div&gt;" style="rounded=1;whiteSpace=wrap;html=1;" vertex="1" parent="1">
          <mxGeometry x="190" y="330" width="90" height="60" as="geometry" />
        </mxCell>
        <mxCell id="mf6Sa_QG6RfHMYuE2r7f-61" style="edgeStyle=orthogonalEdgeStyle;rounded=0;orthogonalLoop=1;jettySize=auto;html=1;exitX=0.5;exitY=1;exitDx=0;exitDy=0;entryX=0.5;entryY=0;entryDx=0;entryDy=0;" edge="1" parent="1" source="mf6Sa_QG6RfHMYuE2r7f-26" target="mf6Sa_QG6RfHMYuE2r7f-59">
          <mxGeometry relative="1" as="geometry" />
        </mxCell>
        <mxCell id="mf6Sa_QG6RfHMYuE2r7f-82" style="edgeStyle=orthogonalEdgeStyle;rounded=0;orthogonalLoop=1;jettySize=auto;html=1;exitX=1;exitY=0.5;exitDx=0;exitDy=0;entryX=1;entryY=0.5;entryDx=0;entryDy=0;startArrow=none;startFill=0;endArrow=none;endFill=0;dashed=1;" edge="1" parent="1" source="mf6Sa_QG6RfHMYuE2r7f-26" target="mf6Sa_QG6RfHMYuE2r7f-67">
          <mxGeometry relative="1" as="geometry">
            <Array as="points">
              <mxPoint x="400" y="360" />
              <mxPoint x="400" y="1083" />
            </Array>
          </mxGeometry>
        </mxCell>
        <mxCell id="mf6Sa_QG6RfHMYuE2r7f-26" value="药物组合&lt;div&gt;协同&lt;span style=&quot;background-color: initial;&quot;&gt;效应数据&lt;/span&gt;&lt;/div&gt;" style="rounded=1;whiteSpace=wrap;html=1;" vertex="1" parent="1">
          <mxGeometry x="290" y="330" width="90" height="60" as="geometry" />
        </mxCell>
        <mxCell id="mf6Sa_QG6RfHMYuE2r7f-35" style="edgeStyle=orthogonalEdgeStyle;rounded=0;orthogonalLoop=1;jettySize=auto;html=1;exitX=0.5;exitY=1;exitDx=0;exitDy=0;entryX=0.5;entryY=0;entryDx=0;entryDy=0;" edge="1" parent="1" source="mf6Sa_QG6RfHMYuE2r7f-27" target="mf6Sa_QG6RfHMYuE2r7f-33">
          <mxGeometry relative="1" as="geometry" />
        </mxCell>
        <mxCell id="mf6Sa_QG6RfHMYuE2r7f-27" value="药物数据清洗和表示符对齐" style="rounded=1;whiteSpace=wrap;html=1;" vertex="1" parent="1">
          <mxGeometry x="8" y="420" width="170" height="30" as="geometry" />
        </mxCell>
        <mxCell id="mf6Sa_QG6RfHMYuE2r7f-33" value="&lt;font color=&quot;#919191&quot;&gt;统一数据查询管理及发布&lt;/font&gt;" style="rounded=1;whiteSpace=wrap;html=1;" vertex="1" parent="1">
          <mxGeometry x="8" y="470" width="170" height="30" as="geometry" />
        </mxCell>
        <mxCell id="mf6Sa_QG6RfHMYuE2r7f-39" style="edgeStyle=orthogonalEdgeStyle;rounded=0;orthogonalLoop=1;jettySize=auto;html=1;exitX=0.5;exitY=1;exitDx=0;exitDy=0;entryX=0.5;entryY=0;entryDx=0;entryDy=0;" edge="1" parent="1" source="mf6Sa_QG6RfHMYuE2r7f-23" target="mf6Sa_QG6RfHMYuE2r7f-14">
          <mxGeometry relative="1" as="geometry">
            <mxPoint x="20" y="500" as="targetPoint" />
            <Array as="points">
              <mxPoint x="35" y="400" />
              <mxPoint y="400" />
              <mxPoint y="550" />
              <mxPoint x="35" y="550" />
            </Array>
          </mxGeometry>
        </mxCell>
        <mxCell id="mf6Sa_QG6RfHMYuE2r7f-42" style="edgeStyle=orthogonalEdgeStyle;rounded=0;orthogonalLoop=1;jettySize=auto;html=1;exitX=0.5;exitY=1;exitDx=0;exitDy=0;entryX=0.877;entryY=0.042;entryDx=0;entryDy=0;entryPerimeter=0;" edge="1" parent="1" source="mf6Sa_QG6RfHMYuE2r7f-12" target="mf6Sa_QG6RfHMYuE2r7f-10">
          <mxGeometry relative="1" as="geometry" />
        </mxCell>
        <mxCell id="mf6Sa_QG6RfHMYuE2r7f-47" value="细胞系特征" style="rounded=1;whiteSpace=wrap;html=1;" vertex="1" parent="1">
          <mxGeometry x="229" y="743" width="80" height="30" as="geometry" />
        </mxCell>
        <mxCell id="mf6Sa_QG6RfHMYuE2r7f-50" style="edgeStyle=orthogonalEdgeStyle;rounded=0;orthogonalLoop=1;jettySize=auto;html=1;exitX=0.5;exitY=1;exitDx=0;exitDy=0;" edge="1" parent="1" source="mf6Sa_QG6RfHMYuE2r7f-48" target="mf6Sa_QG6RfHMYuE2r7f-47">
          <mxGeometry relative="1" as="geometry" />
        </mxCell>
        <mxCell id="mf6Sa_QG6RfHMYuE2r7f-48" value="嵌入先验知识的&lt;div&gt;细胞系组学特征&lt;/div&gt;&lt;div&gt;构建方法&lt;/div&gt;" style="rounded=1;whiteSpace=wrap;html=1;" vertex="1" parent="1">
          <mxGeometry x="209" y="650" width="120" height="60" as="geometry" />
        </mxCell>
        <mxCell id="mf6Sa_QG6RfHMYuE2r7f-81" style="edgeStyle=orthogonalEdgeStyle;rounded=0;orthogonalLoop=1;jettySize=auto;html=1;exitX=0;exitY=0.5;exitDx=0;exitDy=0;entryX=0;entryY=0.5;entryDx=0;entryDy=0;endArrow=none;endFill=0;dashed=1;" edge="1" parent="1" source="mf6Sa_QG6RfHMYuE2r7f-51" target="mf6Sa_QG6RfHMYuE2r7f-57">
          <mxGeometry relative="1" as="geometry">
            <Array as="points">
              <mxPoint x="10" y="821" />
              <mxPoint x="10" y="1080" />
              <mxPoint x="61" y="1080" />
            </Array>
          </mxGeometry>
        </mxCell>
        <mxCell id="mf6Sa_QG6RfHMYuE2r7f-51" value="药物协同分数预测网络" style="rounded=1;whiteSpace=wrap;html=1;" vertex="1" parent="1">
          <mxGeometry x="70" y="803" width="220" height="37" as="geometry" />
        </mxCell>
        <mxCell id="mf6Sa_QG6RfHMYuE2r7f-56" value="在线抗癌协同药物预测系统" style="text;html=1;align=center;verticalAlign=middle;whiteSpace=wrap;rounded=0;fontStyle=1;fontSize=13;" vertex="1" parent="1">
          <mxGeometry x="61.5" y="870" width="211" height="30" as="geometry" />
        </mxCell>
        <mxCell id="mf6Sa_QG6RfHMYuE2r7f-57" value="预测模型" style="rounded=1;whiteSpace=wrap;html=1;" vertex="1" parent="1">
          <mxGeometry x="61.5" y="1068" width="100" height="30" as="geometry" />
        </mxCell>
        <mxCell id="mf6Sa_QG6RfHMYuE2r7f-62" style="edgeStyle=orthogonalEdgeStyle;rounded=0;orthogonalLoop=1;jettySize=auto;html=1;exitX=0.5;exitY=1;exitDx=0;exitDy=0;entryX=1;entryY=0.5;entryDx=0;entryDy=0;" edge="1" parent="1" source="mf6Sa_QG6RfHMYuE2r7f-59" target="mf6Sa_QG6RfHMYuE2r7f-51">
          <mxGeometry relative="1" as="geometry" />
        </mxCell>
        <mxCell id="mf6Sa_QG6RfHMYuE2r7f-59" value="多策略唯一性分折" style="rounded=1;whiteSpace=wrap;html=1;" vertex="1" parent="1">
          <mxGeometry x="275" y="430" width="120" height="30" as="geometry" />
        </mxCell>
        <mxCell id="mf6Sa_QG6RfHMYuE2r7f-64" style="edgeStyle=orthogonalEdgeStyle;rounded=0;orthogonalLoop=1;jettySize=auto;html=1;exitX=0.5;exitY=1;exitDx=0;exitDy=0;entryX=0.125;entryY=0.022;entryDx=0;entryDy=0;entryPerimeter=0;" edge="1" parent="1" source="mf6Sa_QG6RfHMYuE2r7f-21" target="mf6Sa_QG6RfHMYuE2r7f-51">
          <mxGeometry relative="1" as="geometry">
            <mxPoint x="100" y="810" as="targetPoint" />
          </mxGeometry>
        </mxCell>
        <mxCell id="mf6Sa_QG6RfHMYuE2r7f-65" style="edgeStyle=orthogonalEdgeStyle;rounded=0;orthogonalLoop=1;jettySize=auto;html=1;exitX=0.5;exitY=1;exitDx=0;exitDy=0;entryX=0.921;entryY=0.016;entryDx=0;entryDy=0;entryPerimeter=0;" edge="1" parent="1" source="mf6Sa_QG6RfHMYuE2r7f-47" target="mf6Sa_QG6RfHMYuE2r7f-51">
          <mxGeometry relative="1" as="geometry" />
        </mxCell>
        <mxCell id="mf6Sa_QG6RfHMYuE2r7f-67" value="协同数据" style="rounded=1;whiteSpace=wrap;html=1;" vertex="1" parent="1">
          <mxGeometry x="195" y="1068" width="100" height="30" as="geometry" />
        </mxCell>
        <mxCell id="mf6Sa_QG6RfHMYuE2r7f-68" value="" style="rounded=1;whiteSpace=wrap;html=1;" vertex="1" parent="1">
          <mxGeometry x="26" y="910" width="305" height="110" as="geometry" />
        </mxCell>
        <mxCell id="mf6Sa_QG6RfHMYuE2r7f-70" value="协同分数计算及可视化" style="rounded=1;whiteSpace=wrap;html=1;" vertex="1" parent="1">
          <mxGeometry x="55" y="940" width="125" height="30" as="geometry" />
        </mxCell>
        <mxCell id="mf6Sa_QG6RfHMYuE2r7f-71" value="协同药物组合推荐" style="rounded=1;whiteSpace=wrap;html=1;" vertex="1" parent="1">
          <mxGeometry x="190" y="940" width="120" height="30" as="geometry" />
        </mxCell>
        <mxCell id="mf6Sa_QG6RfHMYuE2r7f-73" value="模型管理与重训练" style="rounded=1;whiteSpace=wrap;html=1;" vertex="1" parent="1">
          <mxGeometry x="55" y="980" width="125" height="30" as="geometry" />
        </mxCell>
        <mxCell id="mf6Sa_QG6RfHMYuE2r7f-74" value="药物及协同数据管理" style="rounded=1;whiteSpace=wrap;html=1;" vertex="1" parent="1">
          <mxGeometry x="190" y="980" width="120" height="30" as="geometry" />
        </mxCell>
        <mxCell id="mf6Sa_QG6RfHMYuE2r7f-75" value="前端图形化界面" style="text;html=1;align=center;verticalAlign=middle;whiteSpace=wrap;rounded=0;" vertex="1" parent="1">
          <mxGeometry x="77.5" y="910" width="211" height="30" as="geometry" />
        </mxCell>
        <mxCell id="mf6Sa_QG6RfHMYuE2r7f-78" value="后端支持" style="text;html=1;align=center;verticalAlign=middle;whiteSpace=wrap;rounded=0;" vertex="1" parent="1">
          <mxGeometry x="73" y="1042" width="211" height="30" as="geometry" />
        </mxCell>
        <mxCell id="mf6Sa_QG6RfHMYuE2r7f-80" style="edgeStyle=orthogonalEdgeStyle;rounded=0;orthogonalLoop=1;jettySize=auto;html=1;exitX=0.5;exitY=1;exitDx=0;exitDy=0;entryX=0.5;entryY=0.2;entryDx=0;entryDy=0;entryPerimeter=0;startArrow=classic;startFill=1;" edge="1" parent="1" source="mf6Sa_QG6RfHMYuE2r7f-68" target="mf6Sa_QG6RfHMYuE2r7f-78">
          <mxGeometry relative="1" as="geometry" />
        </mxCell>
        <mxCell id="mf6Sa_QG6RfHMYuE2r7f-83" value="单独把这些action作为目录" style="text;html=1;align=center;verticalAlign=middle;whiteSpace=wrap;rounded=0;" vertex="1" parent="1">
          <mxGeometry x="-175" y="340" width="160" height="30" as="geometry" />
        </mxCell>
        <mxCell id="mf6Sa_QG6RfHMYuE2r7f-84" value="作为平台的一部分？" style="text;html=1;align=center;verticalAlign=middle;whiteSpace=wrap;rounded=0;" vertex="1" parent="1">
          <mxGeometry x="-120" y="470" width="130" height="30" as="geometry" />
        </mxCell>
        <mxCell id="mf6Sa_QG6RfHMYuE2r7f-85" value="预测系统不放在这个图里" style="text;html=1;align=center;verticalAlign=middle;whiteSpace=wrap;rounded=0;" vertex="1" parent="1">
          <mxGeometry x="-145" y="890" width="140" height="30" as="geometry" />
        </mxCell>
      </root>
    </mxGraphModel>
  </diagram>
</mxfile>
